<?xml version="1.0" encoding="UTF-8"?> <!-- Generator: Adobe Illustrator 26.0.2, SVG Export Plug-In . SVG Version: 6.00 Build 0) --> <svg xmlns="http://www.w3.org/2000/svg" xmlns:xlink="http://www.w3.org/1999/xlink" version="1.1" id="Layer_1" x="0px" y="0px" viewBox="0 0 791 504" style="enable-background:new 0 0 791 504;" xml:space="preserve"> <style type="text/css"> .st0{fill:#EE3124;} .st1{fill:#F57F29;} .st2{fill:#FFF000;} .st3{fill:#58B947;} .st4{fill:#0054A6;} .st5{fill:#9F248F;} .st6{fill:#603917;} .st7{fill:#7CC0EA;} .st8{fill:#F498C0;} .st9{fill:#FFFFFF;} .st10{fill:#FED905;} .st11{fill:#67328A;} </style> <rect x="-1.6" y="0" class="st0" width="792.6" height="83.6"></rect> <rect x="-1.6" y="83.6" class="st1" width="792.6" height="84.5"></rect> <rect x="-1.6" y="168" class="st2" width="792.6" height="84.5"></rect> <rect x="-1.6" y="252.5" class="st3" width="792.6" height="84.5"></rect> <rect x="-1.6" y="337" class="st4" width="792.6" height="84.5"></rect> <rect x="-1.6" y="421.4" class="st5" width="792.6" height="82.6"></rect> <rect x="-673.6" y="-209.7" transform="matrix(0.7071 -0.7071 0.7071 0.7071 -240.2083 -75.9141)" width="923.7" height="923.3"></rect> <rect x="-628.9" y="-165.1" transform="matrix(0.7071 -0.7071 0.7071 0.7071 -240.1683 -75.9904)" class="st6" width="834.1" height="834"></rect> <rect x="-583.9" y="-119.9" transform="matrix(0.7071 -0.7071 0.7071 0.7071 -240.2419 -75.8132)" class="st7" width="744.6" height="744"></rect> <rect x="-539.5" y="-75.9" transform="matrix(0.7071 -0.7071 0.7071 0.7071 -240.1111 -76.1438)" class="st8" width="655" height="655.4"></rect> <rect x="-494.5" y="-30.7" transform="matrix(0.7071 -0.7071 0.7071 0.7071 -240.1804 -75.9771)" class="st9" width="565.5" height="565.3"></rect> <g id="Ebene_1_00000153688620896401517610000003248933779660256434_"> <rect x="-276.8" y="-0.6" transform="matrix(0.7071 -0.7071 0.7071 0.7071 -185.3913 -29.2471)" class="st10" width="297.6" height="419.5"></rect> </g> <path class="st11" d="M75.3,223.6c-15.6-15.6-41-15.6-56.6,0c-15.6,15.6-15.6,41,0,56.6c15.6,15.6,41,15.6,56.6,0 C90.9,264.6,90.9,239.2,75.3,223.6z M47,283.5c-17.4,0-31.5-14.1-31.5-31.5c0-17.4,14.1-31.5,31.5-31.5c17.4,0,31.5,14.1,31.5,31.5 C78.5,269.3,64.4,283.5,47,283.5z"></path> </svg> 