<?xml version="1.0" encoding="UTF-8"?>
<svg id="Ebene_1" xmlns="http://www.w3.org/2000/svg" version="1.1" viewBox="0 0 56.69 56.69">
  <!-- Generator: Adobe Illustrator 29.8.4, SVG Export Plug-In . SVG Version: 2.1.1 Build 6)  -->
  <defs>
    <style>
      .st0 {
        fill: #252422;
      }
    </style>
  </defs>
  <path class="st0" d="M46.69,6.92C34.91-3.21,17.05-1.82,6.92,9.97-3.2,21.75-1.81,39.61,9.97,49.74c11.79,10.12,29.65,8.76,39.77-3.05,10.12-11.79,8.76-29.65-3.05-39.77ZM14.69,44.24c-8.76-7.52-9.79-20.79-2.27-29.55,7.52-8.76,20.79-9.79,29.55-2.27,5.27,4.52,7.72,11.12,7.22,17.56-1.89-5.72-7.27-9.86-13.62-9.86-7.93,0-14.35,6.43-14.35,14.35,0,7.17,5.27,13.1,12.14,14.17-6.35,1.56-13.34.17-18.67-4.41Z"/>
</svg>